<svg width="20" height="16" viewBox="0 0 20 16" fill="none" xmlns="http://www.w3.org/2000/svg">
<g opacity="0.8">
<path d="M17.3251 3.34819C16.994 2.71304 16.2502 2.47419 15.6748 2.82161C15.5174 2.9139 14.2471 4.18961 12.2331 6.2959C10.4742 8.1199 9.01939 9.61819 9.00311 9.61819C8.98682 9.61819 7.53196 8.1199 5.77311 6.29047C3.75911 4.18961 2.48882 2.9139 2.33139 2.82161C1.89168 2.55561 1.25653 2.64247 0.914534 3.01161C0.572534 3.3699 0.480248 3.9779 0.713677 4.39047C0.77882 4.51533 2.51596 6.36104 4.56796 8.49447C7.44511 11.4856 8.35711 12.3976 8.51996 12.4628C8.79139 12.5713 9.21482 12.5713 9.48625 12.4628C9.64911 12.3976 10.5502 11.4965 13.4382 8.49447C15.4902 6.36104 17.2274 4.51533 17.298 4.39047C17.4445 4.12447 17.4608 3.5979 17.3251 3.34819Z" fill="#0D0D0D"/>
</g>
</svg>
